<svg xmlns="http://www.w3.org/2000/svg" xmlns:xlink="http://www.w3.org/1999/xlink" contentStyleType="text/css" data-diagram-type="DESCRIPTION" height="1214.5833px" preserveAspectRatio="none" style="width:784px;height:1214px;background:#FEFEFE;" version="1.1" viewBox="0 0 784 1214" width="784.375px" zoomAndPan="magnify"><title>Broadcom BCM4312 WiFi Driver Architecture (wl)</title><defs><linearGradient id="gqln194pvrkqa0" x1="50%" x2="50%" y1="0%" y2="100%"><stop offset="0%" stop-color="#59B6EC"/><stop offset="100%" stop-color="#2FA4E7"/></linearGradient><linearGradient id="gqln194pvrkqa1" x1="50%" x2="50%" y1="0%" y2="100%"><stop offset="0%" stop-color="#35638F"/><stop offset="100%" stop-color="#033C73"/></linearGradient></defs><g><rect fill="#FEFEFE" height="1214.5833" style="stroke:none;stroke-width:1.0417;" width="784.375" x="0" y="0"/><g class="title" data-source-line="5"><rect fill="none" height="47.168" rx="4.1667" ry="4.1667" style="stroke:#BABDBF;stroke-width:1.0417;" width="602.8422" x="86.3172" y="20.8333"/><text fill="#2FA4E7" font-family="'Verdana'" font-size="20.8333" font-weight="bold" lengthAdjust="spacing" textLength="579.9255" x="97.7756" y="51.6296">Broadcom BCM4312 WiFi Driver Architecture (wl)</text></g><!--cluster Linux Kernel--><g class="cluster" data-entity="Linux Kernel" data-source-line="7" data-uid="ent0002" id="cluster_Linux Kernel"><path d="M335.4167,85.7096 L432.2021,85.7096 A6.25,6.25 0 0 1 436.3688,89.8763 L443.6605,116.9271 L746.875,116.9271 A4.1667,4.1667 0 0 1 751.0417,121.0938 L751.0417,187.7617 A4.1667,4.1667 0 0 1 746.875,191.9284 L335.4167,191.9284 A4.1667,4.1667 0 0 1 331.25,187.7617 L331.25,89.8763 A4.1667,4.1667 0 0 1 335.4167,85.7096" fill="none" style="stroke:#59B6EC;stroke-width:2.0833;"/><line style="stroke:#59B6EC;stroke-width:2.0833;" x1="331.25" x2="443.6605" y1="116.9271" y2="116.9271"/><text fill="#2FA4E7" font-family="'Verdana'" font-size="12.5" font-weight="bold" lengthAdjust="spacing" textLength="88.4521" x="340.625" y="104.6041">Linux Kernel</text></g><!--cluster wl Driver Module--><g class="cluster" data-entity="wl Driver Module" data-source-line="13" data-uid="ent0006" id="cluster_wl Driver Module"><path d="M20.8333,251.3034 L148.9543,251.3034 A6.25,6.25 0 0 1 153.1209,255.4701 L160.4126,282.5208 L488.5417,282.5208 A4.1667,4.1667 0 0 1 492.7083,286.6875 L492.7083,903.0846 A4.1667,4.1667 0 0 1 488.5417,907.2513 L20.8333,907.2513 A4.1667,4.1667 0 0 1 16.6667,903.0846 L16.6667,255.4701 A4.1667,4.1667 0 0 1 20.8333,251.3034" fill="none" style="stroke:#59B6EC;stroke-width:2.0833;"/><line style="stroke:#59B6EC;stroke-width:2.0833;" x1="16.6667" x2="160.4126" y1="282.5208" y2="282.5208"/><text fill="#2FA4E7" font-family="'Verdana'" font-size="12.5" font-weight="bold" lengthAdjust="spacing" textLength="119.7876" x="26.0417" y="270.1978">wl Driver Module</text></g><!--cluster CFG80211 Layer--><g class="cluster" data-entity="CFG80211 Layer" data-source-line="14" data-uid="ent0007" id="cluster_CFG80211 Layer"><path d="M45.8333,303.3867 L169.1691,303.3867 A6.25,6.25 0 0 1 173.3358,307.5534 L180.6274,334.6042 L463.5417,334.6042 A4.1667,4.1667 0 0 1 467.7083,338.7708 L467.7083,478.2201 A4.1667,4.1667 0 0 1 463.5417,482.3867 L45.8333,482.3867 A4.1667,4.1667 0 0 1 41.6667,478.2201 L41.6667,307.5534 A4.1667,4.1667 0 0 1 45.8333,303.3867" fill="none" style="stroke:#59B6EC;stroke-width:2.0833;"/><line style="stroke:#59B6EC;stroke-width:2.0833;" x1="41.6667" x2="180.6274" y1="334.6042" y2="334.6042"/><text fill="#2FA4E7" font-family="'Verdana'" font-size="12.5" font-weight="bold" lengthAdjust="spacing" textLength="115.0024" x="51.0417" y="322.2812">CFG80211 Layer</text><text fill="#2FA4E7" font-family="'Verdana'" font-size="12.5" font-style="italic" lengthAdjust="spacing" textLength="78.2593" x="219.7245" y="353.4986">&#171;Rectangle&#187;</text></g><!--cluster Network Interface--><g class="cluster" data-entity="Network Interface" data-source-line="25" data-uid="ent0012" id="cluster_Network Interface"><path d="M234.375,541.7617 L370.516,541.7617 A6.25,6.25 0 0 1 374.6826,545.9284 L381.9743,572.9792 L463.5417,572.9792 A4.1667,4.1667 0 0 1 467.7083,577.1458 L467.7083,668.8138 A4.1667,4.1667 0 0 1 463.5417,672.9805 L234.375,672.9805 A4.1667,4.1667 0 0 1 230.2083,668.8138 L230.2083,545.9284 A4.1667,4.1667 0 0 1 234.375,541.7617" fill="none" style="stroke:#59B6EC;stroke-width:2.0833;"/><line style="stroke:#59B6EC;stroke-width:2.0833;" x1="230.2083" x2="381.9743" y1="572.9792" y2="572.9792"/><text fill="#2FA4E7" font-family="'Verdana'" font-size="12.5" font-weight="bold" lengthAdjust="spacing" textLength="127.8076" x="239.5833" y="560.6562">Network Interface</text><text fill="#2FA4E7" font-family="'Verdana'" font-size="12.5" font-style="italic" lengthAdjust="spacing" textLength="78.2593" x="313.9954" y="591.8736">&#171;Rectangle&#187;</text></g><!--cluster Hardware Abstraction--><g class="cluster" data-entity="Hardware Abstraction" data-source-line="30" data-uid="ent0015" id="cluster_Hardware Abstraction"><path d="M51.0417,732.3555 L214.1541,732.3555 A6.25,6.25 0 0 1 218.3207,736.5221 L225.6124,763.5729 L463.5417,763.5729 A4.1667,4.1667 0 0 1 467.7083,767.7396 L467.7083,878.0846 A4.1667,4.1667 0 0 1 463.5417,882.2513 L51.0417,882.2513 A4.1667,4.1667 0 0 1 46.875,878.0846 L46.875,736.5221 A4.1667,4.1667 0 0 1 51.0417,732.3555" fill="none" style="stroke:#59B6EC;stroke-width:2.0833;"/><line style="stroke:#59B6EC;stroke-width:2.0833;" x1="46.875" x2="225.6124" y1="763.5729" y2="763.5729"/><text fill="#2FA4E7" font-family="'Verdana'" font-size="12.5" font-weight="bold" lengthAdjust="spacing" textLength="154.7791" x="56.25" y="751.2499">Hardware Abstraction</text><text fill="#2FA4E7" font-family="'Verdana'" font-size="12.5" font-style="italic" lengthAdjust="spacing" textLength="78.2593" x="222.3287" y="782.4674">&#171;Rectangle&#187;</text></g><!--cluster Hardware--><g class="cluster" data-entity="Hardware" data-source-line="41" data-uid="ent0021" id="cluster_Hardware"><path d="M521.875,766.6992 L598.8424,766.6992 A6.25,6.25 0 0 1 603.009,770.8659 L610.3007,797.9167 L692.7083,797.9167 A4.1667,4.1667 0 0 1 696.875,802.0833 L696.875,1033.1992 A4.1667,4.1667 0 0 1 692.7083,1037.3659 L521.875,1037.3659 A4.1667,4.1667 0 0 1 517.7083,1033.1992 L517.7083,770.8659 A4.1667,4.1667 0 0 1 521.875,766.6992" fill="none" style="stroke:#59B6EC;stroke-width:2.0833;"/><line style="stroke:#59B6EC;stroke-width:2.0833;" x1="517.7083" x2="610.3007" y1="797.9167" y2="797.9167"/><text fill="#2FA4E7" font-family="'Verdana'" font-size="12.5" font-weight="bold" lengthAdjust="spacing" textLength="68.634" x="527.0833" y="785.5937">Hardware</text></g><!--entity cfg--><g class="entity" data-entity="cfg" data-source-line="8" data-uid="ent0003" id="entity_cfg"><rect fill="url(#gqln194pvrkqa0)" height="45.8008" rx="4.1667" ry="4.1667" style="stroke:#2FA4E7;stroke-width:1.0417;" width="90.2222" x="347.5938" y="129.4596"/><text fill="#FFFFFF" font-family="'Verdana'" font-size="12.5" lengthAdjust="spacing" textLength="58.9722" x="363.2188" y="156.6874">cfg80211</text></g><!--entity netdev--><g class="entity" data-entity="netdev" data-source-line="9" data-uid="ent0004" id="entity_netdev"><rect fill="url(#gqln194pvrkqa0)" height="45.8008" rx="4.1667" ry="4.1667" style="stroke:#2FA4E7;stroke-width:1.0417;" width="99.0723" x="474.4271" y="129.4596"/><text fill="#FFFFFF" font-family="'Verdana'" font-size="12.5" lengthAdjust="spacing" textLength="67.8223" x="490.0521" y="156.6874">net_device</text></g><!--entity pci--><g class="entity" data-entity="pci" data-source-line="10" data-uid="ent0005" id="entity_pci"><rect fill="url(#gqln194pvrkqa0)" height="45.8008" rx="4.1667" ry="4.1667" style="stroke:#2FA4E7;stroke-width:1.0417;" width="124.1577" x="609.7917" y="129.4596"/><text fill="#FFFFFF" font-family="'Verdana'" font-size="12.5" lengthAdjust="spacing" textLength="92.9077" x="625.4167" y="156.6874">PCI Subsystem</text></g><!--entity cfg_hybrid--><g class="entity" data-entity="cfg_hybrid" data-source-line="15" data-uid="ent0008" id="entity_cfg_hybrid"><rect fill="url(#gqln194pvrkqa0)" height="45.8008" rx="4.1667" ry="4.1667" style="stroke:#2FA4E7;stroke-width:1.0417;" width="167.0654" x="58.1354" y="396.0221"/><text fill="#FFFFFF" font-family="'Verdana'" font-size="12.5" lengthAdjust="spacing" textLength="135.8154" x="73.7604" y="423.2499">wl_cfg80211_hybrid.c</text></g><g class="entity" data-entity="GMN9" data-source-line="17" data-uid="ent0010" id="entity_GMN9"><path d="M261.8021,376.3034 L261.8021,414.7617 L225.4896,418.9284 L261.8021,423.0951 L261.8021,461.5573 A4.1667,4.1667 0 0 0 265.9688,465.724 L446.5311,465.724 A4.1667,4.1667 0 0 0 450.6978,461.5573 L450.6978,382.5534 L440.2811,372.1367 L265.9688,372.1367 A4.1667,4.1667 0 0 0 261.8021,376.3034" fill="url(#gqln194pvrkqa1)" style="stroke:#033C73;stroke-width:1.0417;"/><path d="M440.2811,372.1367 L440.2811,380.4701 A2.0833,2.0833 0 0 0 442.3644,382.5534 L450.6978,382.5534 L440.2811,372.1367" fill="url(#gqln194pvrkqa1)" style="stroke:#033C73;stroke-width:1.0417;"/><text fill="#FFFFFF" font-family="'Verdana'" font-size="12.5" lengthAdjust="spacing" textLength="128.9429" x="273.2604" y="394.1562">Connection handling</text><text fill="#FFFFFF" font-family="'Verdana'" font-size="12.5" lengthAdjust="spacing" textLength="153.2349" x="273.2604" y="408.7069">- wl_cfg80211_connect()</text><text fill="#FFFFFF" font-family="'Verdana'" font-size="12.5" lengthAdjust="spacing" textLength="156.604" x="273.2604" y="423.2577">- wl_cfg80211_join_ibss()</text><text fill="#FFFFFF" font-family="'Verdana'" font-size="12.5" font-weight="bold" lengthAdjust="spacing" textLength="46.7407" x="273.2604" y="437.8085">FIXED:</text><text fill="#FFFFFF" font-family="'Verdana'" font-size="12.5" lengthAdjust="spacing" textLength="92.1997" x="323.9745" y="437.8085">Stack overflow</text><text fill="#FFFFFF" font-family="'Verdana'" font-size="12.5" lengthAdjust="spacing" textLength="104.3823" x="273.2604" y="452.3593">in flexible arrays</text></g><!--entity wl_linux--><g class="entity" data-entity="wl_linux" data-source-line="26" data-uid="ent0013" id="entity_wl_linux"><rect fill="url(#gqln194pvrkqa0)" height="45.8008" rx="4.1667" ry="4.1667" style="stroke:#2FA4E7;stroke-width:1.0417;" width="92.2302" x="359.0938" y="610.5117"/><text fill="#FFFFFF" font-family="'Verdana'" font-size="12.5" lengthAdjust="spacing" textLength="60.9802" x="374.7188" y="637.7395">wl_linux.c</text></g><!--entity wl_iw--><g class="entity" data-entity="wl_iw" data-source-line="27" data-uid="ent0014" id="entity_wl_iw"><rect fill="url(#gqln194pvrkqa0)" height="45.8008" rx="4.1667" ry="4.1667" style="stroke:#2FA4E7;stroke-width:1.0417;" width="75.7385" x="246.5104" y="610.5117"/><text fill="#FFFFFF" font-family="'Verdana'" font-size="12.5" lengthAdjust="spacing" textLength="44.4885" x="262.1354" y="637.7395">wl_iw.c</text></g><!--entity wlc--><g class="entity" data-entity="wlc" data-source-line="31" data-uid="ent0016" id="entity_wlc"><rect fill="url(#gqln194pvrkqa0)" height="45.8008" rx="4.1667" ry="4.1667" style="stroke:#2FA4E7;stroke-width:1.0417;" width="93.7561" x="183.3333" y="810.4492"/><text fill="#FFFFFF" font-family="'Verdana'" font-size="12.5" lengthAdjust="spacing" textLength="62.5061" x="198.9583" y="837.677">wlc_pub.h</text></g><!--entity ioctl--><g class="entity" data-entity="ioctl" data-source-line="32" data-uid="ent0017" id="entity_ioctl"><rect fill="url(#gqln194pvrkqa0)" height="45.8008" rx="4.1667" ry="4.1667" style="stroke:#2FA4E7;stroke-width:1.0417;" width="83.2092" x="63.6042" y="810.4492"/><text fill="#FFFFFF" font-family="'Verdana'" font-size="12.5" lengthAdjust="spacing" textLength="51.9592" x="79.2292" y="837.677">wlioctl.h</text></g><g class="entity" data-entity="GMN18" data-source-line="34" data-uid="ent0019" id="entity_GMN18"><path d="M313.0625,805.2721 L313.0625,861.4245 A4.1667,4.1667 0 0 0 317.2292,865.5911 L447.3643,865.5911 A4.1667,4.1667 0 0 0 451.5309,861.4245 L451.5309,811.5221 L441.1143,801.1055 L317.2292,801.1055 A4.1667,4.1667 0 0 0 313.0625,805.2721" fill="url(#gqln194pvrkqa1)" style="stroke:#033C73;stroke-width:1.0417;"/><path d="M441.1143,801.1055 L441.1143,809.4388 A2.0833,2.0833 0 0 0 443.1976,811.5221 L451.5309,811.5221 L441.1143,801.1055" fill="url(#gqln194pvrkqa1)" style="stroke:#033C73;stroke-width:1.0417;"/><text fill="#FFFFFF" font-family="'Verdana'" font-size="12.5" lengthAdjust="spacing" textLength="106.1768" x="324.5208" y="823.1249">IOCTL definitions</text><text fill="#FFFFFF" font-family="'Verdana'" font-size="12.5" font-weight="bold" lengthAdjust="spacing" textLength="46.7407" x="324.5208" y="837.6757">FIXED:</text><text fill="#FFFFFF" font-family="'Verdana'" font-size="12.5" lengthAdjust="spacing" textLength="50.3906" x="375.2349" y="837.6757">[1] -&gt; []</text><text fill="#FFFFFF" font-family="'Verdana'" font-size="12.5" lengthAdjust="spacing" textLength="89.0137" x="324.5208" y="852.2265">flexible arrays</text></g><!--entity hw--><g class="entity" data-entity="hw" data-source-line="42" data-uid="ent0022" id="entity_hw"><rect fill="url(#gqln194pvrkqa0)" height="45.8008" rx="4.1667" ry="4.1667" style="stroke:#2FA4E7;stroke-width:1.0417;" width="138.7085" x="535.8542" y="810.4492"/><text fill="#FFFFFF" font-family="'Verdana'" font-size="12.5" lengthAdjust="spacing" textLength="107.4585" x="551.4792" y="837.677">BCM4312 LP-PHY</text></g><g class="entity" data-entity="GMN23" data-source-line="44" data-uid="ent0024" id="entity_GMN23"><path d="M534.6458,960.3763 L534.6458,1016.5286 A4.1667,4.1667 0 0 0 538.8125,1020.6953 L675.7652,1020.6953 A4.1667,4.1667 0 0 0 679.9319,1016.5286 L679.9319,966.6263 L669.5152,956.2096 L611.0313,956.2096 L605.5104,856.6367 L602.6979,956.2096 L538.8125,956.2096 A4.1667,4.1667 0 0 0 534.6458,960.3763" fill="url(#gqln194pvrkqa1)" style="stroke:#033C73;stroke-width:1.0417;"/><path d="M669.5152,956.2096 L669.5152,964.543 A2.0833,2.0833 0 0 0 671.5986,966.6263 L679.9319,966.6263 L669.5152,956.2096" fill="url(#gqln194pvrkqa1)" style="stroke:#033C73;stroke-width:1.0417;"/><text fill="#FFFFFF" font-family="'Verdana'" font-size="12.5" lengthAdjust="spacing" textLength="94.2322" x="546.1042" y="978.2291">802.11b/g only</text><text fill="#FFFFFF" font-family="'Verdana'" font-size="12.5" lengthAdjust="spacing" textLength="87.0728" x="546.1042" y="992.7799">Max: 54 Mbps</text><text fill="#FFFFFF" font-family="'Verdana'" font-size="12.5" lengthAdjust="spacing" textLength="112.9944" x="546.1042" y="1007.3306">PCI ID: 14e4:4315</text></g><!--link ioctl to GMN18--><g class="link" data-entity-1="ioctl" data-entity-2="GMN18" data-source-line="34" data-uid="lnk20" id="link_ioctl_GMN18"><path d="M110.4792,810.0951 C119.1875,778.1367 140.0417,722.3867 182.8125,702.668 C221.0729,685.0221 239.3438,685.0221 277.6042,702.668 C320.1042,722.2617 350.5521,768.8971 367.3021,800.8138" fill="none" id="ioctl-GMN18" style="stroke:#2FA4E7;stroke-width:3.125;stroke-dasharray:7.2917,7.2917;"/></g><!--link cfg to cfg_hybrid--><g class="link" data-entity-1="cfg" data-entity-2="cfg_hybrid" data-source-line="51" data-uid="lnk26" id="link_cfg_cfg_hybrid"><path d="M347.2917,173.2201 C315.4896,188.7617 273.5313,212.793 243.75,242.9701 C198.0521,289.2617 167.4845,354.2162 152.7137,389.8933" fill="none" id="cfg-to-cfg_hybrid" style="stroke:#2FA4E7;stroke-width:3.125;"/><polygon fill="#2FA4E7" points="150.3229,395.668,157.7589,388.5998,152.3152,390.8558,150.0593,385.4121,150.3229,395.668" style="stroke:#2FA4E7;stroke-width:3.125;"/><text fill="#343A40" font-family="'Verdana'" font-size="12.5" lengthAdjust="spacing" textLength="63.0188" x="290.25" y="226.4478">wiphy ops</text></g><!--link netdev to wl_linux--><g class="link" data-entity-1="netdev" data-entity-2="wl_linux" data-source-line="52" data-uid="lnk27" id="link_netdev_wl_linux"><path d="M522.1979,175.5326 C517.4375,230.0846 502.3021,374.9596 467.7083,490.7201 C454.5521,534.7617 433.9578,577.6182 419.8224,604.9099" fill="none" id="netdev-to-wl_linux" style="stroke:#2FA4E7;stroke-width:3.125;"/><polygon fill="#2FA4E7" points="416.9479,610.4596,424.9594,604.0513,419.3433,605.8348,417.5597,600.2187,416.9479,610.4596" style="stroke:#2FA4E7;stroke-width:3.125;"/><text fill="#343A40" font-family="'Verdana'" font-size="12.5" lengthAdjust="spacing" textLength="69.6045" x="521.0833" y="423.7603">netdev ops</text></g><!--link pci to wl_linux--><g class="link" data-entity-1="pci" data-entity-2="wl_linux" data-source-line="53" data-uid="lnk28" id="link_pci_wl_linux"><path d="M672.8021,175.5742 C674.1354,232.7201 670.9271,387.7201 604.1667,490.7201 C567.0313,548.0013 503.5244,586.5021 457.3369,609.2313" fill="none" id="pci-to-wl_linux" style="stroke:#2FA4E7;stroke-width:3.125;"/><polygon fill="#2FA4E7" points="451.7292,611.9909,461.9806,611.59,456.4023,609.6912,458.3011,604.113,451.7292,611.9909" style="stroke:#2FA4E7;stroke-width:3.125;"/><text fill="#343A40" font-family="'Verdana'" font-size="12.5" lengthAdjust="spacing" textLength="88.2996" x="677.8021" y="423.7603">probe/remove</text></g><!--link cfg_hybrid to wl_linux--><g class="link" data-entity-1="cfg_hybrid" data-entity-2="wl_linux" data-source-line="55" data-uid="lnk29" id="link_cfg_hybrid_wl_linux"><path d="M170.625,442.2617 C190.5521,457.0326 217.9792,476.2826 243.75,490.7201 C284.8021,513.7201 304.75,502.9805 340.625,533.4284 C365.6458,554.668 381.8782,582.3926 392.5969,604.403" fill="none" id="cfg_hybrid-to-wl_linux" style="stroke:#2FA4E7;stroke-width:3.125;"/><polygon fill="#2FA4E7" points="395.3333,610.0221,394.9748,599.7692,393.053,605.3395,387.4826,603.4177,395.3333,610.0221" style="stroke:#2FA4E7;stroke-width:3.125;"/><text fill="#343A40" font-family="'Verdana'" font-size="12.5" lengthAdjust="spacing" textLength="92.2119" x="334.5833" y="516.9062">dev_wlc_ioctl()</text></g><!--link cfg_hybrid to ioctl--><g class="link" data-entity-1="cfg_hybrid" data-entity-2="ioctl" data-source-line="56" data-uid="lnk30" id="link_cfg_hybrid_ioctl"><path d="M134.3229,442.2721 C127.25,464.9284 116.9792,501.1992 112.5,533.4284 C98.2604,635.9909 101.4993,753.966 103.7493,803.7993" fill="none" id="cfg_hybrid-to-ioctl" style="stroke:#2FA4E7;stroke-width:3.125;"/><polygon fill="#2FA4E7" points="104.0313,810.043,107.7708,800.4896,103.7963,804.8399,99.446,800.8654,104.0313,810.043" style="stroke:#2FA4E7;stroke-width:3.125;"/><text fill="#343A40" font-family="'Verdana'" font-size="12.5" lengthAdjust="spacing" textLength="105.5725" x="118.75" y="638.2395">struct definitions</text></g><!--link wl_iw to ioctl--><g class="link" data-entity-1="wl_iw" data-entity-2="ioctl" data-source-line="57" data-uid="lnk31" id="link_wl_iw_ioctl"><path d="M256.6563,656.6471 C245.3333,665.0638 231.8333,674.3034 218.75,681.3138 C209.5833,686.2305 205.5208,683.8555 196.875,689.6471 C152.7292,719.2201 127.5051,772.1787 115.1509,804.2829" fill="none" id="wl_iw-to-ioctl" style="stroke:#2FA4E7;stroke-width:3.125;"/><polygon fill="#2FA4E7" points="112.9063,810.1159,120.1619,802.8628,114.7768,805.255,112.3845,799.8699,112.9063,810.1159" style="stroke:#2FA4E7;stroke-width:3.125;"/><text fill="#343A40" font-family="'Verdana'" font-size="12.5" lengthAdjust="spacing" textLength="88.4216" x="203.125" y="707.4999">WEXT support</text></g><!--link wl_linux to wlc--><g class="link" data-entity-1="wl_linux" data-entity-2="wlc" data-source-line="58" data-uid="lnk32" id="link_wl_linux_wlc"><path d="M375.4583,656.6888 C347.3646,678.0326 307.6771,709.1367 294.7917,724.0221 C271.5833,750.8346 254.648,781.4679 243.3146,804.4679" fill="none" id="wl_linux-to-wlc" style="stroke:#2FA4E7;stroke-width:3.125;"/><polygon fill="#2FA4E7" points="240.5521,810.0742,248.4334,803.5064,242.8542,805.4023,240.9583,799.823,240.5521,810.0742" style="stroke:#2FA4E7;stroke-width:3.125;"/><text fill="#343A40" font-family="'Verdana'" font-size="12.5" lengthAdjust="spacing" textLength="106.9458" x="336.9063" y="707.4999">hardware control</text></g><!--link wl_linux to hw--><g class="link" data-entity-1="wl_linux" data-entity-2="hw" data-source-line="60" data-uid="lnk33" id="link_wl_linux_hw"><path d="M427.7604,656.7617 C466.2708,694.8659 539.8378,767.6373 578.2962,805.6789" fill="none" id="wl_linux-to-hw" style="stroke:#2FA4E7;stroke-width:3.125;"/><polygon fill="#2FA4E7" points="582.7396,810.0742,579.0046,800.519,579.0367,806.4115,573.1443,806.4436,582.7396,810.0742" style="stroke:#2FA4E7;stroke-width:3.125;"/><text fill="#343A40" font-family="'Verdana'" font-size="12.5" lengthAdjust="spacing" textLength="54.2358" x="493.5417" y="707.4999">DMA/PIO</text></g><g class="legend" data-source-line="62"><rect fill="none" height="136.6536" rx="4.1667" ry="4.1667" style="stroke:#BABDBF;stroke-width:1.0417;" width="456.2988" x="298.3445" y="1054.0326"/><text fill="#343A40" font-family="'Verdana'" font-size="14.5833" font-weight="bold" lengthAdjust="spacing" textLength="43.0593" x="320.0883" y="1086.3191">Issue</text><text fill="#343A40" font-family="'Verdana'" font-size="14.5833" font-weight="bold" lengthAdjust="spacing" textLength="68.2739" x="536.4375" y="1086.3191">Solution</text><text fill="#343A40" font-family="'Verdana'" font-size="14.5833" lengthAdjust="spacing" textLength="196.6614" x="319.6468" y="1113.7117">FORTIFY_SOURCE memcpy</text><text fill="#343A40" font-family="'Verdana'" font-size="14.5833" lengthAdjust="spacing" textLength="130.78" x="535.9961" y="1113.7117">__builtin_memcpy</text><text fill="#343A40" font-family="'Verdana'" font-size="14.5833" lengthAdjust="spacing" textLength="120.3766" x="319.6468" y="1141.1043">Stack corruption</text><text fill="#343A40" font-family="'Verdana'" font-size="14.5833" lengthAdjust="spacing" textLength="197.345" x="535.9961" y="1141.1043">Union buffer for flex arrays</text><text fill="#343A40" font-family="'Verdana'" font-size="14.5833" lengthAdjust="spacing" textLength="108.9762" x="319.6468" y="1168.4969">UBSAN bounds</text><text fill="#343A40" font-family="'Verdana'" font-size="14.5833" lengthAdjust="spacing" textLength="112.1806" x="535.9961" y="1168.4969">[1] -&gt; [] syntax</text><line style="stroke:#343A40;stroke-width:1.0417;" x1="309.8028" x2="743.185" y1="1067.5742" y2="1067.5742"/><line style="stroke:#343A40;stroke-width:1.0417;" x1="309.8028" x2="743.185" y1="1094.9668" y2="1094.9668"/><line style="stroke:#343A40;stroke-width:1.0417;" x1="309.8028" x2="743.185" y1="1122.3594" y2="1122.3594"/><line style="stroke:#343A40;stroke-width:1.0417;" x1="309.8028" x2="743.185" y1="1149.752" y2="1149.752"/><line style="stroke:#343A40;stroke-width:1.0417;" x1="309.8028" x2="743.185" y1="1177.1445" y2="1177.1445"/><line style="stroke:#343A40;stroke-width:1.0417;" x1="309.8028" x2="309.8028" y1="1067.5742" y2="1177.1445"/><line style="stroke:#343A40;stroke-width:1.0417;" x1="526.1521" x2="526.1521" y1="1067.5742" y2="1177.1445"/><line style="stroke:#343A40;stroke-width:1.0417;" x1="743.185" x2="743.185" y1="1067.5742" y2="1177.1445"/></g><!--SRC=[ZLHTJzim57tFhxXZ3uDAXPKLQQeOKkd7gDRIgWK1GYXo73VnSEt8SKYZiV- -6oTfcmhGt8V6znpxVfthJoPaAmQKwKGm8ftucSk8QB82Zz3dGAj4-Zqbb8RFmq7-ss5GjOgKPD8iJ2OOQ4ODaO5WZcEuGSEbLiH74bps9krlhLEuuqCEVSrVc8QkfY4tU2JH30vJSUGu4Nea0OE3CPV96dunBPauW3yEu7gao-3xrzDMwmb83BWfh98PrsSld39hnotk2cZM6y4YyU8iDcnbqOXov- -EdrHKqKoKZ_bNlZQ4tl2dzGbZaZ5z0EVdyoh9YukIR7sbmgtYSyFCqzm_fbMWfM53bifWiNWG6b3BjmZvwYafqHLN4a8YVS5bKCERiEkI5kp3emyulnMNBlVYU8_LQ0n7zuD-fz60XS74GM51baAbDHQNi1HipJtiAz6QPF46PjAtELa3bhTMmMjcKgMVOIGDtaee-xY88kzyMRfgMoFmT8loz4sNLqJxAK5LTRtOQ6AB-A5NwaQ9TnoMrz9TY2jgH0dPxtUwMCVoDPhsRiRWioMNF8yWVg_eZwZevWKyFjK8_rdiNJLNUMycfXgxyQmvktgmEOH5oMpmdZ86XnEZ3xUzHgqSjrhUIG1AYcnZdf1r1yxQCF6YRIpvW8tw7MYrMRk3diwSMeGOsnUOCq5i-Y77aoX6Q6AoMz531r8UXHaeX8lfjOog-OYNrfo00xoFHbfvx4Ip5ShMSNOktkFX5MxUQjif784zfZKZ3HMJK5FhcrLQZNGtkB-1E8aYfOspyL4uf8Y7bG9nBerMmgcJmXGv_KdtP3QQEevWGLuoAoLRmDSVC8hZXEKV2oKI-mYy5X0Cf_ERqV31NKnlvxq1hDYAHXdQNTTBk30uufMfF53CD5LQ9r5n4zpA_DzBbajy-PRujETYAuMsENTxkUXUeqRm_KVZLgKGPzAGDV8mwY9svny0]--></g></svg>